# xmcd
#
# Track frame offsets:
#	150
#	206952
#	286470
#
# Disc length: 4748 seconds
#
# Revision: 0
# Processed by: cddbd v1.5.2PL0 Copyright (c) Steve Scherf et al.
# Submitted via: audiograbber 1.83.01
#
DISCID=2e128a03
DTITLE=Klaus Schulze - Klaus Schulzes Wahnfried: Trance 4 Motion [ex: Contempor
DTITLE=ary Works [CD 03) [2000]]
DYEAR=2000
DGENRE=Electronic
TTITLE0=Local Scanning
TTITLE1=Aphrodesire
TTITLE2=Global Midication [SMS remix]
EXTD=
EXTT0=
EXTT1=
EXTT2=
PLAYORDER=
